<?xml version="1.0" encoding="utf-8"?>
<!-- Generator: Adobe Illustrator 24.3.0, SVG Export Plug-In . SVG Version: 6.00 Build 0)  -->
<svg version="1.1" id="Layer_1" xmlns="http://www.w3.org/2000/svg" xmlns:xlink="http://www.w3.org/1999/xlink" x="0px" y="0px"
	 viewBox="0 0 800 800" style="enable-background:new 0 0 800 800;" xml:space="preserve">
<style type="text/css">
	.st0{fill:#94E7FB;}
	.st1{fill-rule:evenodd;clip-rule:evenodd;fill:#94E7FB;}
</style>
<path class="st0" d="M325,400c0-41.4,33.6-75,75-75s75,33.6,75,75s-33.6,75-75,75S325,441.4,325,400z"/>
<path class="st1" d="M66.7,400c0,54.6,14.2,73,42.5,109.9c56.6,73.5,151.4,156.8,290.8,156.8c139.4,0,234.3-83.3,290.8-156.8
	c28.3-36.8,42.5-55.2,42.5-109.9s-14.2-73-42.5-109.9C634.3,216.7,539.4,133.3,400,133.3c-139.4,0-234.3,83.3-290.8,156.8
	C80.8,327,66.7,345.4,66.7,400z M400,275c-69,0-125,56-125,125c0,69,56,125,125,125c69,0,125-56,125-125C525,331,469,275,400,275z"
	/>
</svg>
