<?xml version="1.0" encoding="utf-8"?>
<!-- Generator: Adobe Illustrator 24.3.0, SVG Export Plug-In . SVG Version: 6.00 Build 0)  -->
<svg version="1.1" id="Layer_1" xmlns="http://www.w3.org/2000/svg" xmlns:xlink="http://www.w3.org/1999/xlink" x="0px" y="0px"
	 viewBox="0 0 800 800" style="enable-background:new 0 0 800 800;" xml:space="preserve">
<style type="text/css">
	.st0{fill-rule:evenodd;clip-rule:evenodd;fill:#94E7FB;}
</style>
<path class="st0" d="M53.5,202.7c16.9-7.3,36.5,0.6,43.8,17.5l-30.6,13.1c30.6-13.1,30.6-13.1,30.6-13.1l0,0c0,0,0,0,0,0l0.1,0.3
	c0.1,0.3,0.4,0.8,0.7,1.5c0.7,1.4,1.7,3.6,3.1,6.5c2.9,5.7,7.3,14.1,13.3,24.3c12.1,20.4,30.6,47.5,55.7,74.6
	c5.9,6.4,12.2,12.7,18.8,18.9c0.3,0.3,0.6,0.5,0.8,0.8c49.5,46.3,118.5,86.3,210.1,86.3c40.3,0,75.9-7.7,107.4-20.1
	c40.9-16.1,75.1-40.3,103.2-66.6c31.7-29.7,54.9-61.7,70.3-86.3c7.6-12.3,13.2-22.6,16.9-29.7c1.8-3.6,3.1-6.3,4-8.1
	c0.4-0.9,0.7-1.6,0.9-1.9l0.2-0.4c7.3-16.9,26.9-24.8,43.8-17.5c16.9,7.3,24.8,26.8,17.5,43.8l-30.6-13.1
	c30.6,13.1,30.6,13.1,30.6,13.1l-0.1,0.2l-0.1,0.3l-0.4,0.9c-0.3,0.7-0.8,1.7-1.3,2.9c-1.1,2.5-2.8,5.9-5,10.2
	c-4.4,8.6-10.9,20.6-19.7,34.7c-13.4,21.5-32.3,48.3-57,75.2l26.6,26.6c13,13,13,34.1,0,47.1c-13,13-34.1,13-47.1,0l-28-28
	c-18.8,15.2-39.9,29.5-63.2,41.9l26.1,40.1c10,15.4,5.7,36.1-9.8,46.1c-15.4,10-36.1,5.7-46.1-9.8l-32.9-50.5
	c-22.6,6.9-46.8,11.9-72.5,14.2V550c0,18.4-14.9,33.3-33.3,33.3c-18.4,0-33.3-14.9-33.3-33.3v-51.5c-25.8-2.3-50-7.2-72.6-14.2
	l-32.8,50.5c-10,15.4-30.7,19.8-46.1,9.8c-15.4-10-19.8-30.7-9.8-46.1l26.1-40.1c-23.3-12.3-44.4-26.7-63.2-41.9l-28,28
	c-13,13-34.1,13-47.1,0c-13-13-13-34.1,0-47.1l26.6-26.6c-28.2-30.7-48.8-61.1-62.4-84c-7-11.7-12.2-21.6-15.7-28.6
	c-1.8-3.5-3.1-6.3-4-8.3c-0.5-1-0.8-1.8-1.1-2.4l-0.3-0.7l-0.1-0.2l0-0.1l0,0c0,0,0,0,30.6-13.2L36,246.5
	C28.8,229.6,36.6,209.9,53.5,202.7z"/>
</svg>
